**ABCDEFGHIJKLMNOPQRSTUVWXYZabcdefghijklmnopqrstuvwxyz**************************
**PARASOLID !"#$%&'()*+,-./:;<=>?@[\]^_`{|}~0123456789**************************
**PART1;
MC=x64/Windows NT;
MC_MODEL=genuineintel family 6 model 14 stepping 10, intel(r) core(tm) i5-9400f cpu @ 2.90ghz;
MC_ID=bo;
OS=windows nt (x64);
OS_RELEASE=6.3 windows 10 pro (build 19042) ;
FRU=mdc_ugii_v7.0_djl_can_vrh;
APPL=unigraphics;
SITE=unknown;
USER=Z.B. Wei;
FORMAT=text;
GUISE=transmit;
KEY=workpiece-230-180-50;
FILE=F:\Abaqus_Study\models\workpiece-230-180-50.x_t;
DATE=10-may-2021;
**PART2;
SCH=SCH_2700178_26105;
USFLD_SIZE=0;
**PART3;
**END_OF_HEADER*****************************************************************
T51 : TRANSMIT FILE created by modeller version 270017823 SCH_2700178_26105_1300
6196 0 12 30 CCCCCCCCCCCCCDI5 owner1040 0 CCCCCCCCCA13 boundary_mesh1006 0 A16 i
ndex_map_offset0 0 1 dA9 index_map82 0 A17 node_id_index_map82 0 A20 schema_embe
dding_map82 0 A5 child12 0 A14 lowest_node_id0 0 1 dZ1 949 2 3 0 0 0 0 1e3 1e-8
 0 0 0 1 0 1 1 4 5 6 7 8 9 10 0 0 0 0 0 0 0 81 255 1 2 949 11 1 12 0 0 0 13 70 1
1 CI9 list_type0 0 1 uI10 notransmit0 0 1 lCCCDCCDI12 finger_index0 0 1 dI12 fin
ger_block1012 0 CZ3 0 4 T1 0 0 6 20 1 14 14 13 255 4 91 0 1 0 15 0 0 16 0 50 255
 5 865 0 17 18 0 0 +-.09 -.09 .025 1 462592926927149e-30 0 -462592926927149e-30
 1 0 30 255 6 881 0 19 20 0 0 +-.09 .09 .05 0 0 1 29 255 7 873 0 21 22 0 -.09 .0
9 .05 19 8 CCCCCCCA5 owner12 0 Z8 1 0 1 16 0 23 V0 16 255 9 73 24 ?25 0 26 27 0
 0 1 18 255 10 348 0 28 0 29 30 ?1 17 255 28 0 31 32 33 10 34 35 0 36 +18 29 155
 0 37 10 38 39 ?1 29 30 870 0 10 40 41 -.09 -.09 .05 29 40 869 0 42 43 30 .09 -.
09 .05 29 41 871 0 44 30 22 -.09 -.09 .01 18 44 470 0 45 46 47 41 ?1 29 22 872 0
 46 41 7 -.09 .09 .01 18 46 472 0 48 42 44 22 ?1 17 48 0 31 33 32 46 49 19 0 50
 -18 42 275 0 51 52 46 40 ?1 17 51 0 53 54 36 42 55 56 0 57 +18 52 274 0 58 59 4
2 60 ?1 17 58 0 61 62 63 52 64 65 0 66 +18 59 276 0 67 68 52 43 ?1 29 60 867 0 5
2 39 43 .09 .09 .01 29 39 866 0 29 69 60 .09 .09 .05 29 43 868 0 59 60 40 .09 -.
09 .01 29 69 785 0 47 70 39 -.115 -.09 .01 18 47 468 0 71 44 72 69 ?1 29 70 782
 0 72 73 69 -.115 .09 .01 18 72 466 0 74 47 21 70 ?1 29 73 780 0 68 75 70 .115 -
.09 .01 18 68 278 0 76 77 59 73 ?1 29 75 779 0 77 78 73 .115 .09 .01 18 77 280 0
 63 79 68 75 ?1 29 78 67 0 38 80 75 .115 .09 0 18 38 54 0 81 29 82 78 ?1 29 80 6
8 0 82 83 78 .115 -.09 0 18 82 56 0 84 38 85 80 ?1 29 83 69 0 85 86 80 -.115 -.0
9 0 18 85 58 0 25 82 79 83 ?1 29 86 70 0 79 0 83 -.115 .09 0 18 79 60 0 87 85 77
 86 ?1 17 87 0 88 89 90 79 91 92 0 93 +15 255 88 382 0 90 15 0 17 89 0 88 94 87
 85 95 96 0 0 +17 90 0 88 87 94 72 71 97 0 91 -17 91 0 98 99 93 72 87 92 0 0 -16
 92 74 100 ?87 101 102 103 0 0 1 17 93 0 98 91 81 79 104 105 0 95 +15 98 178 0 9
9 106 0 17 81 0 98 93 64 38 107 101 0 108 +17 104 0 109 110 95 38 93 105 0 0 -16
 105 46 111 ?93 56 112 113 0 0 1 17 95 0 109 104 114 79 89 96 0 0 -15 109 45 0 9
5 115 0 17 114 0 109 95 110 85 116 117 0 89 -16 96 52 118 ?89 117 119 120 0 0 1
 81 1 118 116 121 96 0 0 122 111 123 16 117 50 122 ?116 112 96 124 0 0 1 16 119
 230 125 ?126 96 127 128 0 0 1 30 120 66 0 96 129 124 0 +-.115 .09 0 11564823173
17872e-30 -1 0 30 129 22 0 102 130 120 0 +.115 .09 .05 -1 0 0 30 124 65 0 117 12
0 131 0 +-.115 -.09 0 1 0 0 30 131 64 0 112 124 113 0 +.115 -.09 0 -115648231731
7872e-30 1 0 16 112 48 132 ?108 105 117 131 0 0 1 30 113 63 0 105 131 133 0 +.11
5 .09 0 -1 0 0 30 133 83 0 101 113 134 0 +.115 .09 .05 0 0 -1 16 101 71 135 ?81
 26 92 133 0 0 1 30 134 84 0 26 133 27 0 +.115 -.09 .05 0 0 -1 16 26 72 136 ?84
 9 101 134 0 0 1 30 27 85 0 9 134 103 0 +-.115 -.09 .05 0 0 -1 30 103 86 0 92 27
 137 0 +-.115 .09 .05 0 0 -1 31 255 137 786 0 138 103 139 0 +.1025 0 .01 0 0 1 1
 0 0 .0065 16 138 654 140 ?141 142 143 137 0 0 1 30 139 788 0 65 137 144 0 +.115
 .09 .01 -1 0 0 16 65 250 145 ?58 127 146 139 0 0 1 30 144 789 0 146 139 147 0 +
.115 -.09 .01 -1156482317317872e-30 1 0 16 146 242 148 ?63 65 149 144 0 0 1 30 1
47 790 0 149 144 150 0 +-.115 -.09 .01 1 0 0 16 149 234 151 ?76 146 152 147 0 0
 1 31 150 791 0 153 147 154 0 +-.1025 0 .01 0 0 1 1 0 0 .0065 16 153 702 155 ?15
6 143 0 150 0 0 1 30 154 792 0 97 150 157 0 +-.115 .09 .01 1156482317317872e-30
 -1 0 16 97 420 158 ?71 159 160 154 0 0 1 30 157 793 0 161 154 162 0 +.115 .09 .
01 -1 0 0 16 161 442 163 ?74 19 164 157 0 0 1 30 162 795 0 159 157 165 0 +-.115
 -.09 .01 1 0 0 16 159 428 166 ?45 164 97 162 0 0 1 30 165 874 0 167 162 168 0 +
.09 0 .05 0 -1 0 16 167 258 169 ?57 152 35 165 0 0 1 30 168 875 0 127 165 170 0
 +.09 .09 .025 0 0 1 16 127 254 171 ?37 119 65 168 0 0 1 30 170 876 0 152 168 12
8 0 +.09 .09 .01 0 1 0 16 152 228 172 ?66 149 167 170 0 0 1 30 128 877 0 119 170
 173 0 +.09 -.09 .05 0 0 1 30 173 878 0 160 128 174 0 +-.09 -4163336342344345e-3
2 .05 -462592926927149e-30 1 0 16 160 458 175 ?32 97 142 173 0 0 1 30 174 879 0
 35 173 20 0 +-.09 -.09 .025 0 0 1 16 35 432 176 ?28 167 19 174 0 0 1 30 20 880
 0 164 174 6 0 +-.09 -.09 .01 462592926927149e-30 -1 0 16 164 436 177 ?33 161 15
9 20 0 0 1 81 1 177 902 121 164 0 0 169 175 178 17 33 0 31 28 48 44 50 164 0 34
 +15 31 485 0 32 17 0 17 50 0 179 74 45 46 33 164 0 99 -17 34 0 180 181 55 44 28
 35 0 0 -15 180 370 0 181 182 0 17 181 0 180 25 34 47 45 159 0 94 -17 55 0 180 3
4 126 10 51 56 0 0 -17 126 0 180 55 183 42 67 119 0 0 +16 56 11 184 ?51 102 105
 130 0 0 1 81 1 184 899 121 56 0 0 185 186 187 16 102 20 186 ?188 92 56 129 0 0
 1 30 130 14 0 56 189 129 0 +-.115 -.09 .05 1 0 0 31 189 677 0 142 190 130 0 +.1
025 0 0 0 0 1 1 0 0 .0065 16 142 650 191 ?192 160 138 189 0 0 1 31 190 725 0 143
 0 189 0 +-.1025 0 0 0 0 1 1 0 0 .0065 16 143 698 193 ?194 138 153 190 0 0 1 81
 1 193 746 121 143 0 0 132 191 195 17 194 0 196 194 194 0 197 143 0 0 +15 196 68
8 0 194 115 198 17 197 0 199 197 197 0 194 143 0 0 -15 199 709 0 197 200 201 14
 255 200 706 202 ?0 203 199 4 204 -0 0 0 203 23 15 201 710 0 156 200 0 17 156 0
 201 156 156 0 205 153 0 0 +17 205 0 206 205 205 0 156 153 0 0 -15 206 681 0 205
 207 179 14 207 490 208 ?203 17 206 4 209 +0 0 203 17 23 15 179 493 0 71 207 0 1
7 71 0 179 45 74 47 90 97 0 181 +17 45 0 179 50 71 44 181 159 0 33 +17 74 0 179
 71 50 72 99 161 0 90 +17 99 0 98 49 91 46 74 161 0 0 -17 49 0 98 210 99 21 48 1
9 0 188 +17 210 0 98 211 49 29 188 102 0 0 -18 21 471 0 32 72 0 7 ?1 16 19 438 2
12 ?49 35 161 6 0 0 1 17 188 0 53 36 54 21 210 102 0 0 +15 53 354 0 36 213 0 17
 36 0 53 51 188 10 32 160 0 55 -17 54 0 53 188 51 29 57 167 0 210 -17 57 0 214 6
7 37 42 54 167 0 126 +15 214 285 0 57 215 0 17 67 0 214 66 57 59 126 119 0 62 -1
7 37 0 214 57 66 29 211 127 0 54 +17 66 0 214 37 67 52 62 152 0 211 +17 211 0 98
 64 210 52 37 127 0 0 -17 64 0 98 81 211 77 58 65 0 107 -17 107 0 216 217 108 77
 81 101 0 0 -15 216 190 0 217 218 0 17 217 0 216 84 107 68 63 146 0 219 -17 108
 0 216 107 84 38 110 112 0 104 +17 84 0 216 108 217 82 219 26 0 116 +17 110 0 10
9 114 104 82 108 112 0 0 -17 219 0 180 183 116 68 84 26 0 0 -17 116 0 180 219 25
 82 114 117 0 110 +17 25 0 180 116 181 85 94 9 0 114 +17 94 0 88 90 89 47 25 9 0
 0 -17 183 0 180 126 219 59 76 149 0 0 -17 76 0 61 63 62 68 183 149 0 217 +15 61
 301 0 62 220 0 17 63 0 61 58 76 77 217 146 0 64 +17 62 0 61 76 58 59 66 152 0 1
83 -14 220 298 221 ?17 215 222 4 223 +0 0 17 215 23 81 1 221 940 224 220 225 0 2
26 227 228 14 17 482 227 ?207 220 31 4 5 -0 0 207 220 23 14 215 282 226 ?220 115
 214 4 18 -0 0 220 115 23 15 222 633 0 229 220 61 50 223 776 0 220 230 209 0 +0
 0 .01 0 0 1 1 0 0 13 23 3 0 0 0 0 0 0 8 15 14 15 82 231 ?182 0 88 4 230 -0 0 18
2 0 23 81 1 231 926 224 15 232 0 0 233 234 14 182 80 233 ?218 15 180 4 235 -0 0
 218 15 23 50 230 90 0 15 235 223 0 +-.115 .09 .05 1 1156482317317872e-30 0 -115
6482317317872e-30 1 0 50 235 89 0 182 236 230 0 +-.115 -.09 .05 0 1 0 0 0 1 50 2
36 88 0 218 237 235 0 +.115 -.09 .05 -1 -1156482317317872e-30 0 1156482317317872
e-30 -1 0 14 218 78 238 ?106 182 216 4 236 -0 0 106 182 23 50 237 87 0 106 239 2
36 0 +.115 .09 .05 0 -1 0 0 0 -1 14 106 76 240 ?213 218 98 4 237 -0 0 213 218 23
 50 239 62 0 115 241 237 0 +0 0 0 0 0 1 1 0 0 14 115 42 242 ?215 213 196 4 239 -
0 0 215 213 23 50 241 25 0 213 243 239 0 +0 0 .05 0 0 1 1 0 0 14 213 24 244 ?115
 106 53 4 241 +0 0 115 106 23 51 255 243 673 0 203 204 241 0 +.1025 0 0 0 0 1 .0
065 1 0 0 14 203 658 245 ?200 207 246 4 243 -0 0 200 207 23 51 204 721 0 200 0 2
43 0 +-.1025 0 0 0 0 1 .0065 1 0 0 81 1 245 946 224 203 247 0 208 202 248 15 246
 661 0 249 203 250 17 249 0 246 249 249 0 192 142 0 0 -15 250 662 0 141 203 0 17
 141 0 250 141 141 0 229 138 0 0 +17 229 0 222 229 229 0 141 138 0 0 -17 192 0 1
98 192 192 0 249 142 0 0 +15 198 640 0 192 115 109 80 255 1 224 0 251 8001 0 0 0
 0 3 5 0 0 0 FFFFTFTFFFFFFF2 81 1 247 945 252 203 185 245 253 254 255 81 1 208 9
44 224 207 253 0 227 245 256 81 1 202 948 224 200 254 0 245 0 257 83 255 3 248 .
8 .8 .8 81 1 254 947 252 200 258 202 247 0 259 83 3 257 .8 .8 .8 80 1 252 260 26
1 8015 0 0 0 0 3 5 0 0 0 FFFFTFFFFFFFFF2 81 1 258 841 121 200 0 254 262 185 263
 83 1 259 0 80 1 121 264 265 9000 1 1 1 1 1 1 1 1 0 FFFFTFTFFFFFFF3 81 1 262 836
 121 218 0 266 267 258 268 81 1 185 842 121 203 0 247 258 184 269 84 255 32 263
 232687ead3d6e493f4b2eb70f7aa783984 32 269 d6f9ce6533fcc9b9e957aba96ed842f981 1
 266 929 252 218 262 238 270 271 272 81 1 267 834 121 15 0 232 158 262 273 84 32
 268 24095cb4fbb86f0365f7138d9498e05281 1 232 925 252 15 267 231 0 270 274 81 1
 158 827 121 97 0 0 148 267 275 84 32 273 3c8ae23c4ee0ab8cb42cb45fe8f99cd681 1 1
48 824 121 146 0 0 135 158 276 84 32 275 878e8389bb3cfd59dd9ffb55d86b99b281 1 13
5 820 121 101 0 0 100 148 277 84 32 276 85ec3c6826a9b04d72f21aa3daa89fdf81 1 100
 819 121 92 0 0 24 135 278 84 32 277 a9543a0a93568f6baafdedf30107dba181 1 24 818
 121 9 0 0 136 100 279 84 32 278 b6fc2613c21c5ebd8c616abd2f04614b81 1 136 817 12
1 26 0 0 140 24 280 84 32 279 62d72353f2c27d6e017de918d0ce0cf581 1 140 816 121 1
38 0 0 155 136 281 84 32 280 4af68cef4c02eb496fc9ec69e9f0faec81 1 155 815 121 15
3 0 0 282 140 283 84 32 281 d7cfffd89d4d3d143e2a1a8f190f8fb181 1 282 749 121 115
 0 284 191 155 285 84 32 283 4ada5305ad93a66d9899cd49b6d3f97081 1 284 935 252 11
5 282 242 286 287 288 81 1 191 748 121 142 0 0 193 282 289 84 32 285 3ef6f7305d9
67da0fc51507d352fb93084 32 289 a8a04e0ba56bd2f00240ce7a71a1361481 1 242 936 224
 115 284 0 244 226 290 81 1 286 933 252 213 291 244 271 284 292 81 1 287 937 252
 215 293 226 284 225 294 83 1 288 0 81 1 293 918 121 215 0 287 295 296 297 81 1
 226 938 224 215 287 0 242 221 298 81 1 225 939 252 220 296 221 287 299 300 83 1
 294 0 81 1 296 919 121 220 0 225 293 0 301 81 1 299 941 252 17 302 227 225 253
 303 83 1 300 0 81 1 302 916 121 17 0 299 304 295 305 81 1 227 942 224 17 299 0
 221 208 306 81 1 253 943 252 207 295 208 299 247 307 83 1 303 0 81 1 295 917 12
1 207 0 253 302 293 308 83 1 307 0 84 32 308 ac3671b2bada3e2330c8e79d7a26092883
 3 306 .8 .8 .8 81 1 304 915 121 182 0 270 291 302 309 84 32 305 ac62dbe8b879ae6
c04a28768419d073681 1 270 927 252 182 304 233 232 266 310 81 1 291 914 121 213 0
 286 311 304 312 84 32 309 2c491416682730da29008766c8e54fa381 1 311 913 121 106
 0 271 125 291 313 84 32 312 642e327fe11685574ddbb378ce62032981 1 271 931 252 10
6 311 240 266 286 314 81 1 125 912 121 119 0 0 163 311 315 84 32 313 d103094f316
7bb677b527455005d4c3381 1 163 911 121 161 0 0 172 125 316 84 32 315 209c2a5243be
9c6a310af38af65b0ff581 1 172 910 121 152 0 0 151 163 317 84 32 316 c8719cc514793
822887e9298c7be978c81 1 151 909 121 149 0 0 145 172 318 84 32 317 9a7a278168bb70
eb7a44fed55ada311181 1 145 908 121 65 0 0 176 151 319 84 32 318 35efa2e67c2316f2
3e8dfc28cbbd8bed81 1 176 907 121 35 0 0 166 145 320 84 32 319 21687b57e221bf72b7
e1274cba7d3eeb81 1 166 906 121 159 0 0 171 176 321 84 32 320 80b5399f1199d4f8b82
741aa9ce7d5e081 1 171 905 121 127 0 0 212 166 322 84 32 321 bcc2c3e7ac14071e29e1
9d756a2ca8da81 1 212 904 121 19 0 0 175 171 323 84 32 322 def88928a220ccf97f3d67
56b5015ddd81 1 175 903 121 160 0 0 177 212 324 84 32 323 0eb37746703328b2a164278
2d483dcfb84 32 324 f002587300051c4755985b530062d93c81 1 240 932 224 106 271 0 23
8 244 325 83 1 314 0 81 1 238 930 224 218 266 0 233 240 326 81 1 244 934 224 213
 286 0 240 242 327 83 3 325 .8 .8 .8 83 3 327 .8 .8 .8 81 1 233 928 224 182 270
 0 231 238 328 83 3 326 .8 .8 .8 83 3 328 .8 .8 .8 83 1 310 0 84 32 301 4d9b7440
210675c881f00c780ce96b6683 3 298 .8 .8 .8 84 32 297 084afa4dbf56236fbfc49e022b5c
d2fd83 1 292 0 83 3 290 .8 .8 .8 83 1 274 0 83 1 272 0 79 255 15 265 UGS/ObjectS
tate79 21 261 SDL/TYSA_TRANSLUCENCY83 3 256 .8 .8 .8 83 1 255 0 79 15 251 SDL/TY
SA_COLOUR83 3 234 .8 .8 .8 50 209 777 0 207 223 18 0 +0 0 .01 0 0 1 1 0 0 50 18
 864 0 215 209 5 0 +.09 .09 .025 -1 0 0 0 0 1 83 3 228 .8 .8 .8 17 32 0 31 48 28
 21 36 160 0 49 +81 1 132 122 121 112 0 0 111 193 329 84 32 195 4f09d7b0f514d498
01d8ff1012e47c7781 1 111 121 121 105 0 0 118 132 330 84 32 329 12f9971a9b918bd8e
4d9080c7660a4aa84 32 330 980e6f3f3e8afedc7fbb75f9b7cd599a81 1 186 900 121 102 0
 0 184 169 331 81 1 169 901 121 167 0 0 186 177 332 84 32 331 8fd14cf1576b1b1aee
2f43c76ceed81e84 32 332 e0fa8b05759c7516dd81bfdcdde54d4984 32 187 151a585428ede9
b2b2b9251117cc546384 32 178 fa7e0bf06d6a977acddeead65863ae1481 1 122 113 121 117
 0 0 0 118 333 84 32 333 451b658f83f7ea613f015eab8c416b9b84 32 123 73f078a1ec545
f869fdeb595801b88f719 16 92 0 1 0 8 4 S0 74 4 CI16 index_map_offset0 0 1 dCCZ20
 14 6 0 0 296 334 12 254 202 2 0 0 0 0 0 0 0 0 0 0 0 0 0 0 81 2 334 898 335 1 0
 12 0 0 336 337 81 1 12 923 338 1 334 2 0 0 339 80 1 338 340 341 9000 0 0 0 0 3
 5 0 0 0 FFTFFFFFFFFFFF1 82 255 1 339 -1 79 19 341 UG2/PMARK_ATTRIBUTE80 2 335 3
42 343 8004 0 0 0 0 3 5 0 0 0 FFTFFFFFFFFFFF2 3 83 1 336 7830.64 84 8 337 Kg/Cu
 M 79 16 343 SDL/TYSA_DENSITY80 1 11 344 345 9000 0 0 0 0 3 5 0 0 0 FFTFFFFFFFFF
FF1 82 1 13 44 79 24 345 UG2/BODY_COLOR_ATTRIBUTE1 0 
