**ABCDEFGHIJKLMNOPQRSTUVWXYZabcdefghijklmnopqrstuvwxyz**************************
**PARASOLID !"#$%&'()*+,-./:;<=>?@[\]^_`{|}~0123456789**************************
**PART1;
MC=x64/Windows NT;
MC_MODEL=genuineintel family 6 model 14 stepping 10, intel(r) core(tm) i5-9400f cpu @ 2.90ghz;
MC_ID=bo;
OS=windows nt (x64);
OS_RELEASE=6.3 windows 10 pro (build 19042) ;
FRU=mdc_ugii_v7.0_djl_can_vrh;
APPL=unigraphics;
SITE=unknown;
USER=Z.B. Wei;
FORMAT=text;
GUISE=transmit;
KEY=wp;
FILE=F:\_UG_Projects\Abaqus\1s\wp.x_t;
DATE=13-may-2021;
**PART2;
SCH=SCH_2700178_26105;
USFLD_SIZE=0;
**PART3;
**END_OF_HEADER*****************************************************************
T51 : TRANSMIT FILE created by modeller version 270017823 SCH_2700178_26105_1300
6196 0 12 30 CCCCCCCCCCCCCDI5 owner1040 0 CCCCCCCCCA13 boundary_mesh1006 0 A16 i
ndex_map_offset0 0 1 dA9 index_map82 0 A17 node_id_index_map82 0 A20 schema_embe
dding_map82 0 A5 child12 0 A14 lowest_node_id0 0 1 dZ1 138 2 3 0 0 0 0 1e3 1e-8
 0 0 0 1 0 1 1 4 5 6 7 8 9 10 0 0 0 0 0 0 0 81 255 1 2 138 11 1 12 0 0 0 13 70 1
1 CI9 list_type0 0 1 uI10 notransmit0 0 1 lCCCDCCDI12 finger_index0 0 1 dI12 fin
ger_block1012 0 CZ3 0 4 T1 0 0 4 20 1 14 14 13 255 4 91 0 1 0 15 0 0 16 0 50 255
 5 90 0 15 17 0 0 +-.0125 .01 -.0125 1 0 -1110223024625156e-30 -1110223024625156
e-30 0 -1 30 255 6 86 0 18 19 0 0 +-.0125 .01 -.0125 0 -1 0 29 255 7 67 0 20 21
 0 .0125 0 -.0125 19 8 CCCCCCCA5 owner12 0 Z8 1 0 1 16 0 22 V0 16 255 9 73 23 ?2
4 0 25 19 0 0 1 18 255 10 15 0 26 0 27 28 ?1 17 255 26 0 29 30 31 10 32 33 0 34
 +18 27 10 0 31 10 35 36 ?1 29 28 17 0 10 36 37 .0125 .01 -.0125 29 36 12 0 27 3
8 28 .0125 .01 .0125 29 37 70 0 39 28 40 -.0125 0 -.0125 18 39 60 0 41 42 0 37 ?
1 29 40 69 0 42 37 21 -.0125 0 .0125 18 42 58 0 43 44 39 40 ?1 29 21 68 0 44 40
 7 .0125 0 .0125 18 44 56 0 45 20 42 21 ?1 17 45 0 46 47 24 44 43 48 0 49 +18 20
 54 0 50 51 44 7 ?1 17 50 0 52 34 49 20 53 54 0 55 +18 51 2 0 30 35 20 56 ?1 17
 30 0 29 57 26 51 58 59 0 60 +18 35 5 0 61 27 51 38 ?1 29 56 4 0 51 0 38 -.0125
 .01 -.0125 29 38 7 0 35 56 36 -.0125 .01 .0125 17 61 0 46 24 47 35 31 62 0 57 -
15 255 46 79 0 45 63 0 17 24 0 46 45 61 42 64 9 0 65 +17 47 0 46 61 45 27 49 25
 0 32 -17 31 0 29 26 57 27 61 62 0 47 +16 62 11 66 ?31 33 67 68 0 0 1 17 57 0 29
 31 30 35 69 67 0 64 +15 29 23 0 57 70 0 17 69 0 71 72 64 51 57 67 0 0 -16 67 6
 73 ?57 62 74 75 0 0 1 17 64 0 71 69 65 35 24 9 0 0 -15 71 81 0 65 15 0 17 65 0
 71 64 72 42 76 77 0 0 +17 72 0 71 65 69 39 60 18 0 76 +17 76 0 78 79 43 39 65 7
7 0 0 -16 77 52 80 ?65 48 0 81 0 0 1 81 1 80 116 82 77 0 0 73 23 83 16 48 50 84
 ?45 54 77 85 0 0 1 30 81 66 0 77 86 85 0 +-.0125 0 -.0125 1110223024625156e-30
 0 1 30 86 22 0 59 87 81 0 +.0125 .01 -.0125 -1 0 0 30 85 65 0 48 81 88 0 +-.012
5 0 .0125 1 0 0 30 88 64 0 54 85 89 0 +.0125 0 .0125 -1110223024625156e-30 0 -1
 16 54 48 90 ?50 74 48 88 0 0 1 30 89 63 0 74 88 91 0 +.0125 0 -.0125 -1 0 0 16
 74 46 92 ?41 67 54 89 0 0 1 30 91 83 0 93 89 94 0 +.0125 .01 -.0125 0 -1 0 16 9
3 71 95 ?55 25 18 91 0 0 1 30 94 84 0 25 91 19 0 +.0125 .01 .0125 0 -1 0 16 25 7
2 96 ?49 9 93 94 0 0 1 30 19 85 0 9 94 6 0 +-.0125 .01 .0125 0 -1 0 81 1 96 114
 82 25 0 0 84 73 97 17 49 0 52 50 32 44 47 25 0 53 +15 52 77 0 50 98 0 17 32 0 5
2 49 34 27 26 33 0 0 -17 53 0 78 43 79 44 50 54 0 0 -15 78 45 0 76 99 0 17 43 0
 78 76 53 42 45 48 0 24 -17 79 0 78 53 76 20 41 74 0 0 -17 41 0 100 60 55 39 79
 74 0 72 +15 100 75 0 41 101 0 17 60 0 100 58 41 51 72 18 0 69 -17 55 0 100 41 5
8 20 34 93 0 79 +17 58 0 100 55 60 10 30 59 0 0 -17 34 0 52 32 50 10 55 93 0 58
 -16 59 20 102 ?30 18 33 86 0 0 1 81 1 102 118 82 59 0 0 23 103 104 16 18 74 103
 ?72 93 59 6 0 0 1 16 33 16 105 ?26 59 62 87 0 0 1 81 1 105 120 82 33 0 0 103 92
 106 30 87 19 0 33 68 86 0 +.0125 .01 .0125 -1110223024625156e-30 0 -1 30 68 14
 0 62 75 87 0 +-.0125 .01 .0125 1 0 0 30 75 9 0 67 0 68 0 +-.0125 .01 -.0125 111
0223024625156e-30 0 1 80 255 1 82 107 108 9000 1 1 1 1 1 1 1 1 0 FFFFTFTFFFFFFF3
 81 1 103 119 82 18 0 0 102 105 109 81 1 92 121 82 74 0 0 105 90 110 84 255 32 1
06 369e329acf38c58e60b96575efc216e281 1 90 122 82 54 0 0 92 95 111 84 32 110 573
333ea85dc83d61e88d386d243b6ef81 1 95 123 82 93 0 0 90 112 113 84 32 111 70c59a8a
ff678f41fd80f2cc77153acb81 1 112 124 82 99 0 114 95 115 116 84 32 113 390782ac84
03b497302ed0fa1e850ddf14 255 99 42 114 ?0 70 78 4 117 -0 0 0 70 22 81 1 114 137
 118 99 112 0 119 0 120 81 1 115 125 82 101 0 121 112 122 123 84 32 116 85eecce2
0f8061bde3d71c94621ed7a614 101 76 121 ?70 98 100 4 124 -0 0 70 98 22 81 1 121 13
5 118 101 115 0 125 119 126 81 1 122 126 82 15 0 127 115 128 129 84 32 123 4e358
dd2dcd2cf8ae14f6da7a8fdc22914 15 82 127 ?63 0 71 4 5 -0 0 63 0 22 81 1 127 132 1
18 15 122 0 0 130 131 81 1 128 127 82 70 0 119 122 132 133 84 32 129 b652d4ff630
cb060ccd4daf685fd197e14 70 24 119 ?99 101 29 4 134 +0 0 99 101 22 81 1 119 136 1
18 70 128 0 121 114 135 81 1 132 128 82 63 0 130 128 136 137 84 32 133 03ccf75bb
6d82fa006e8d0680730a78d14 63 80 130 ?98 15 46 4 17 -0 0 98 15 22 81 1 130 133 11
8 63 132 0 127 125 138 81 1 136 129 82 98 0 125 132 0 139 84 32 137 0a556c92cb85
42635acb818ecf74d8f614 98 78 125 ?101 63 52 4 140 -0 0 101 63 22 81 1 125 134 11
8 98 136 0 130 121 141 84 32 139 5600fee0a87bbc25ec6a2d570c01f6ae80 1 118 0 142
 8001 0 0 0 0 3 5 0 0 0 FFFFTFTFFFFFFF2 83 255 3 141 1 .6 0 79 255 15 142 SDL/TY
SA_COLOUR50 140 88 0 98 124 17 0 +.0125 .01 .0125 -1 0 1110223024625156e-30 1110
223024625156e-30 0 1 13 22 3 0 0 0 0 0 0 8 15 50 124 87 0 101 117 140 0 +.0125 .
01 -.0125 0 0 1 1 0 0 50 17 89 0 63 140 5 0 +-.0125 .01 .0125 0 0 -1 -1 0 0 50 1
17 62 0 99 134 124 0 +0 0 0 0 1 0 0 0 1 50 134 25 0 70 0 117 0 +0 .01 0 0 1 0 0
 0 1 83 3 138 1 .6 0 83 3 135 1 .6 0 83 3 131 1 .6 0 83 3 126 1 .6 0 83 3 120 1
 .6 0 84 32 109 94e5c675fe654835bb964b2b0fcaaa8979 15 108 UGS/ObjectState81 1 23
 117 82 9 0 0 80 102 143 84 32 104 cce000cb92be4ae20edac9a810af6a7384 32 143 f9b
d17324b21d181be8b8847c2d00c5f81 1 84 113 82 48 0 0 66 96 144 81 1 73 115 82 67 0
 0 96 80 145 84 32 97 6c4771edea02365cca67f57dcd2d048884 32 145 5a42bff46b3ea915
00486189fcbe958281 1 66 112 82 62 0 0 0 84 146 84 32 144 6d37cb90f21de977693f01c
b55bf303384 32 146 e23b7f9cdff7706e95bbb1b165cd54b984 32 83 f0c61824d9964f7a1803
c7086d03706219 16 92 0 1 0 8 4 S0 74 4 CI16 index_map_offset0 0 1 dCCZ20 14 4 0
 0 12 136 114 2 0 0 0 0 0 0 0 0 0 0 0 0 0 0 0 0 81 2 12 111 147 1 0 2 0 0 148 14
9 80 2 147 150 151 8004 0 0 0 0 3 5 0 0 0 FFTFFFFFFFFFFT2 3 83 1 148 7830.64 84
 8 149 Kg/Cu M 79 16 151 SDL/TYSA_DENSITY80 1 11 152 153 9000 0 0 0 0 3 5 0 0 0
 FFTFFFFFFFFFFF1 82 255 1 13 78 79 24 153 UG2/BODY_COLOR_ATTRIBUTE1 0 
