**ABCDEFGHIJKLMNOPQRSTUVWXYZabcdefghijklmnopqrstuvwxyz**************************
**PARASOLID !"#$%&'()*+,-./:;<=>?@[\]^_`{|}~0123456789**************************
**PART1;
MC=x64/Windows NT;
MC_MODEL=genuineintel family 6 model 14 stepping 10, intel(r) core(tm) i5-9400f cpu @ 2.90ghz;
MC_ID=bo;
OS=windows nt (x64);
OS_RELEASE=6.3 windows 10 pro (build 19042) ;
FRU=mdc_ugii_v7.0_djl_can_vrh;
APPL=unigraphics;
SITE=unknown;
USER=Z.B. Wei;
FORMAT=text;
GUISE=transmit;
KEY=wp_al1;
FILE=F:\Abaqus_Study\models\baobi-wzb\wp_al1.x_t;
DATE=5-jul-2021;
**PART2;
SCH=SCH_2700178_26105;
USFLD_SIZE=0;
**PART3;
**END_OF_HEADER*****************************************************************
T51 : TRANSMIT FILE created by modeller version 270017823 SCH_2700178_26105_1300
6196 0 12 30 CCCCCCCCCCCCCDI5 owner1040 0 CCCCCCCCCA13 boundary_mesh1006 0 A16 i
ndex_map_offset0 0 1 dA9 index_map82 0 A17 node_id_index_map82 0 A20 schema_embe
dding_map82 0 A5 child12 0 A14 lowest_node_id0 0 1 dZ1 1588 2 3 0 0 0 0 1e3 1e-8
 0 0 0 1 0 1 1 4 5 6 7 8 9 10 0 0 0 0 0 0 0 81 255 1 2 1588 11 1 12 0 0 0 13 70
 11 CI9 list_type0 0 1 uI10 notransmit0 0 1 lCCCDCCDI12 finger_index0 0 1 dI12 f
inger_block1012 0 CZ3 0 4 T1 0 0 6 20 1 14 14 13 255 4 3 0 1 0 15 0 0 16 0 50 25
5 5 1454 0 17 18 0 0 +-.002 -.0425 -.02 1 -370708495582752e-29 0 370708495582752
e-29 1 0 30 255 6 1487 0 19 20 0 0 +-.002 .0425 -.02 0 0 1 29 255 7 1468 0 21 22
 0 -.002 .0425 0 19 8 CCCCCCCA5 owner12 0 Z8 1 0 1 16 0 23 V0 16 255 9 73 24 ?25
 0 26 27 0 0 1 18 255 10 490 0 28 0 29 22 ?1 17 255 28 0 30 31 32 10 33 34 0 35
 -18 29 161 0 36 10 37 38 ?1 29 22 1467 0 10 39 7 -.002 .0425 -.02 29 39 1466 0
 40 41 22 -.00200000000000006 .0252444126749544 -.02 18 40 689 0 42 43 44 39 ?1
 29 41 1465 0 44 45 39 -.002923747814892335 .0215125692949667 -.02 18 44 687 0 4
6 40 47 41 ?1 29 45 1464 0 47 48 41 -.001653594569415295 -.00112500000000008 -.0
2 18 47 685 0 49 44 50 45 ?1 29 48 1463 0 50 51 45 -.000614378277661417 -.019646
6476049726 -.02 18 50 683 0 52 47 53 48 ?1 29 51 1462 0 53 54 48 -.0019999999999
99935 -.02524441267495435 -.02 18 53 681 0 55 50 56 51 ?1 29 54 1461 0 56 57 51
 -.002 -.0425 -.02 18 56 679 0 58 53 59 54 ?1 29 57 1460 0 60 61 54 -.002 -.0425
 0 18 60 678 0 62 63 0 57 ?1 29 61 1459 0 63 64 57 -.001999999999999945 -.025244
41267495435 0 18 63 680 0 65 66 60 61 ?1 29 64 1458 0 66 67 61 -.000614378277661
417 -.0196466476049726 0 18 66 682 0 68 69 63 64 ?1 29 67 1457 0 69 70 64 -.0016
5359456941532 -.001125000000000104 0 18 69 684 0 71 72 66 67 ?1 29 70 1456 0 72
 73 67 -.00292374781489234 .02151256929496665 0 18 72 686 0 74 75 69 70 ?1 29 73
 1455 0 75 76 70 -.002000000000000065 .0252444126749544 0 18 75 688 0 77 21 72 7
3 ?1 29 76 1173 0 43 78 73 .000614378277661483 .01964664760497275 0 18 43 364 0
 79 80 40 76 ?1 29 78 1172 0 80 81 76 .00165359456941535 .001125000000000064 0 1
8 80 348 0 82 83 43 78 ?1 29 81 1171 0 83 84 78 .00292374781489235 -.02151256929
496665 0 18 83 350 0 85 86 80 81 ?1 29 84 1170 0 86 87 81 .002000000000000065 -.
0252444126749544 0 18 86 352 0 88 89 83 84 ?1 29 87 1169 0 89 90 84 .002 -.0425
 0 18 89 354 0 91 92 86 87 ?1 29 90 1168 0 93 94 87 .002 -.0425 -.02 18 93 355 0
 95 96 97 90 ?1 29 94 1167 0 97 98 90 .002000000000000065 -.0252444126749544 -.0
2 18 97 353 0 99 93 100 94 ?1 29 98 1166 0 100 101 94 .00292374781489234 -.02151
25692949667 -.02 18 100 351 0 102 97 103 98 ?1 29 101 1165 0 103 104 98 .0016535
9456941532 .001125000000000046 -.02 18 103 349 0 105 100 106 101 ?1 29 104 1164
 0 106 107 101 .000614378277661488 .01964664760497275 -.02 18 106 347 0 108 103
 92 104 ?1 29 107 1163 0 109 110 104 .001999999999999935 .02524441267495435 -.02
 18 109 363 0 111 112 113 107 ?1 29 110 1162 0 113 114 107 .002 .0425 -.02 18 11
3 361 0 115 109 116 110 ?1 29 114 1161 0 92 38 110 .002 .0425 0 18 92 360 0 117
 106 89 114 ?1 29 38 1160 0 29 118 114 .001999999999999935 .0252444126749544 0 2
9 118 17 0 37 119 38 .011 .0425 -.03 18 37 15 0 120 29 121 118 ?1 29 119 12 0 12
1 122 118 .011 -.0425 -.03 18 121 10 0 123 37 124 119 ?1 29 122 7 0 124 125 119
 -.011 -.0425 -.03 18 124 5 0 126 121 112 122 ?1 29 125 4 0 112 127 122 -.011 .0
425 -.03 18 112 2 0 128 124 109 125 ?1 29 127 460 0 116 129 125 .011 .0425 -.02
 18 116 359 0 130 113 96 127 1e-8 1 29 129 461 0 96 131 127 .01099999999999982 -
.0425 -.02 18 96 357 0 132 116 93 129 1e-8 1 29 131 793 0 59 133 129 -.011000000
00000018 -.0425 -.02 18 59 677 0 134 56 135 131 1e-8 1 29 133 794 0 135 0 131 -.
011 .0425 -.02 18 135 675 0 31 59 21 133 1e-8 1 17 31 0 30 134 28 135 136 137 0
 138 +18 21 690 0 139 135 75 7 ?1 17 139 0 140 35 77 21 141 142 0 143 +15 255 14
0 724 0 139 144 0 17 35 0 140 33 139 10 143 19 0 136 -17 77 0 140 139 33 75 42 1
45 0 146 -17 141 0 147 148 149 75 139 142 0 0 -16 142 667 150 ?139 151 152 153 0
 0 1 17 143 0 154 155 136 21 35 19 0 149 +15 154 491 0 136 15 0 17 155 0 154 156
 143 92 149 157 0 0 -17 136 0 154 143 158 10 31 137 0 0 -16 19 627 159 ?143 145
 137 6 0 0 1 17 149 0 147 141 160 21 155 157 0 0 +15 147 528 0 161 162 0 17 160
 0 147 149 163 92 36 164 0 155 -16 157 46 165 ?149 166 167 168 0 0 1 81 1 165 15
14 169 157 0 0 170 171 172 16 166 6 173 ?174 175 157 176 0 0 1 16 167 50 171 ?91
 157 177 178 0 0 1 30 168 63 0 157 178 179 0 +.011 .0425 0 -1 0 0 30 178 65 0 16
7 180 168 0 +-.011 -.0425 0 1 3154042683594195e-31 0 30 179 83 0 1 168 181 182 +
.011 .0425 -.03 0 0 1 30 181 84 0 1 179 183 184 +.011 -.0425 -.03 0 0 1 141 255
 182 185 182 182 179 133 255 185 193 0 186 187 188 0 +179 .011 .0425 -.03 .011 .
0425 -.02 0 .01 16 186 71 189 ?190 26 191 185 0 0 1 30 187 86 0 1 183 185 192 +-
.011 .0425 -.03 0 0 1 133 188 210 0 26 185 193 0 +181 .011 -.0425 -.03 .011 -.04
25 -.02 0 .01 16 26 72 194 ?195 9 186 188 0 0 1 133 193 472 0 196 188 197 0 +197
 .002 -.0425 -.02 .01099999999999982 -.0425 -.02 .001000000000000178 .01 16 196
 279 198 ?132 199 200 193 0 0 1 30 197 473 0 1 193 201 202 +.000999999999999822
 -.0425 -.02 1 -277555756156289e-29 0 133 201 474 0 199 197 203 0 +204 .01099999
999999982 -.0425 -.02 .011 .0425 -.02 0 .085 141 202 193 202 202 197 16 199 287
 205 ?130 206 196 201 0 0 1 133 203 475 0 206 201 207 0 +208 .011 .0425 -.02 .00
2 .0425 -.02 0 .009 30 204 443 0 1 209 208 210 +.01099999999999982 -.0425 -.02 1
95921710227969e-29 1 0 30 209 775 0 1 211 204 212 +-.01100000000000018 -.0425 -.
02 1 0 0 30 208 442 0 1 204 176 213 +.011 .0425 -.02 -1 208166817117217e-29 0 14
1 210 201 210 210 204 30 176 9 0 166 208 214 0 +-.011 .0425 -.03 265310649267041
e-30 -1 0 141 213 203 213 213 208 30 214 14 0 175 176 215 0 +-.011 -.0425 -.03 1
 3154042683594195e-31 0 16 175 11 216 ?217 218 166 214 0 0 1 30 215 19 0 218 214
 180 0 +.011 -.0425 -.03 -265310649267041e-30 1 0 16 218 16 219 ?220 221 175 215
 0 0 1 30 180 22 0 221 215 178 0 +.011 .0425 -.03 -1 0 0 16 221 20 222 ?223 191
 218 180 0 0 1 81 1 222 117 169 221 0 0 173 219 224 17 223 0 154 158 120 112 225
 221 0 226 +16 191 74 227 ?158 186 221 207 0 0 1 81 1 227 890 169 191 0 0 24 189
 228 17 158 0 154 136 223 135 128 191 0 0 +133 207 484 0 191 203 27 0 +187 -.011
 .0425 -.03 -.011 .0425 -.02 0 .01 133 27 538 0 9 207 229 0 +183 -.011 -.0425 -.
03 -.011 -.0425 -.02 0 .01 133 229 796 0 137 27 230 0 +230 -.002 .0425 -.02 -.01
1 .0425 -.02 .000999999999999989 .01 30 183 85 0 1 181 187 231 +-.011 -.0425 -.0
3 0 0 1 141 231 27 231 231 183 16 137 631 232 ?31 19 34 229 0 0 1 30 230 797 0 1
 229 233 234 +-.001 .0425 -.02 -1 0 0 133 233 798 0 151 230 235 0 +211 -.011 .04
25 -.02 -.01100000000000018 -.0425 -.02 0 .085 141 234 229 234 234 230 16 151 58
9 236 ?134 237 142 233 0 0 1 133 235 799 0 237 233 238 0 +209 -.0110000000000001
8 -.0425 -.02 -.002 -.0425 -.02 0 .00900000000000018 30 211 776 0 1 0 209 239 +-
.011 .0425 -.02 -195921710227969e-29 -1 0 141 239 233 239 239 211 16 237 597 240
 ?58 241 151 235 0 0 1 30 238 1174 0 242 235 243 0 -.000614378277661488 .0196466
4760497275 -.02 0 0 1 16 242 309 244 ?108 245 246 238 0 0 1 30 243 1175 0 245 23
8 247 0 -.001999999999999935 .0252444126749544 -.02 0 0 1 16 245 305 248 ?111 24
9 242 243 0 0 1 30 247 1176 0 177 243 250 0 -.00165359456941532 .001125000000000
046 -.02 0 0 1 16 177 263 251 ?105 167 252 247 0 0 1 30 250 1177 0 252 247 253 0
 -.00292374781489234 -.0215125692949667 -.02 0 0 1 16 252 267 254 ?102 177 255 2
50 0 0 1 30 253 1178 0 255 250 256 0 -.002000000000000065 -.0252444126749544 -.0
2 0 0 1 16 255 271 257 ?99 252 258 253 0 0 1 31 255 256 1179 0 259 253 260 0 --.
01 .0252444126749544 0 0 0 1 1 0 0 .012 16 259 343 261 ?262 263 164 256 0 0 1 30
 260 1180 0 164 256 264 0 +.001999999999999845 -741416991165446e-32 0 -370708495
582752e-29 -1 0 16 164 339 265 ?36 259 266 260 0 0 1 30 264 1181 0 249 260 267 0
 +.002 .0425 -.03 0 0 1 16 249 299 268 ?117 258 245 264 0 0 1 30 267 1182 0 269
 264 270 0 +.002 .0425 -.02 370708495582752e-29 1 0 16 269 303 271 ?272 246 206
 267 0 0 1 31 270 1183 0 246 267 273 0 +-.01 .0252444126749544 -.02 0 0 1 1 0 0
 .012 16 246 307 274 ?275 242 269 270 0 0 1 31 273 1184 0 263 270 276 0 -.016535
9456941537 .01125 -.02 0 0 1 1 0 0 .018 16 263 261 277 ?278 279 259 273 0 0 1 31
 276 1185 0 279 273 280 0 +-.0165359456941537 -.01125 -.02 0 0 1 1 0 0 .022 16 2
79 265 281 ?282 283 263 276 0 0 1 31 280 1186 0 283 276 284 0 -.01 -.02524441267
49544 -.02 0 0 1 1 0 0 .008 16 283 269 285 ?286 200 279 280 0 0 1 30 284 1187 0
 200 280 287 0 +.002000000000000065 -.02524441267495435 -.02 370708495582752e-29
 1 0 16 200 273 288 ?289 196 283 284 0 0 1 30 287 1188 0 258 284 290 0 +.002 -.0
425 -.02 0 0 1 16 258 275 291 ?292 255 249 287 0 0 1 30 290 1189 0 266 287 293 0
 +.00200000000000016 -741416991165563e-32 0 -370708495582752e-29 -1 0 16 266 323
 294 ?295 164 296 290 0 0 1 31 293 1190 0 296 290 297 0 +.01 -.0252444126749544
 0 0 0 1 1 0 0 .008 16 296 319 298 ?299 266 300 293 0 0 1 31 297 1191 0 300 293
 301 0 --.0165359456941537 -.01125 0 0 0 1 1 0 0 .022 16 300 315 302 ?303 296 30
4 297 0 0 1 31 301 1192 0 304 297 305 0 +.0165359456941537 .01125 0 0 0 1 1 0 0
 .018 16 304 311 306 ?307 300 308 301 0 0 1 30 305 1469 0 145 301 309 0 --.00200
000000000006 .0252444126749544 -.02 0 0 1 16 145 623 310 ?42 311 19 305 0 0 1 30
 309 1470 0 311 305 312 0 --.002923747814892335 .0215125692949667 -.02 0 0 1 16
 311 619 313 ?46 314 145 309 0 0 1 30 312 1471 0 314 309 315 0 --.00165359456941
5295 -.00112500000000008 -.02 0 0 1 16 314 615 316 ?49 317 311 312 0 0 1 30 315
 1472 0 317 312 318 0 --.000614378277661417 -.0196466476049726 -.02 0 0 1 16 317
 611 319 ?52 320 314 315 0 0 1 30 318 1473 0 320 315 153 0 --.001999999999999935
 -.02524441267495435 -.02 0 0 1 16 320 607 321 ?55 308 317 318 0 0 1 30 153 1474
 0 142 318 322 0 +-.00200000000000016 741416991165562e-32 0 370708495582752e-29
 1 0 31 322 1475 0 152 153 323 0 +-.01 .0252444126749544 0 0 0 1 1 0 0 .008 16 1
52 663 324 ?146 142 325 322 0 0 1 31 323 1476 0 325 322 326 0 -.0165359456941537
 .01125 0 0 0 1 1 0 0 .022 16 325 659 327 ?328 152 329 323 0 0 1 31 326 1477 0 3
29 323 330 0 +-.0165359456941537 -.01125 0 0 0 1 1 0 0 .018 16 329 655 331 ?332
 325 333 326 0 0 1 31 330 1478 0 333 326 334 0 -.01 -.0252444126749544 0 0 0 1 1
 0 0 .012 16 333 651 335 ?336 329 337 330 0 0 1 30 334 1479 0 337 330 338 0 +-.0
01999999999999845 741416991165446e-32 0 370708495582752e-29 1 0 16 337 647 339 ?
340 333 0 334 0 0 1 30 338 1480 0 308 334 341 0 +-.002 -.0425 -.03 0 0 1 16 308
 601 342 ?62 304 320 338 0 0 1 30 341 1481 0 241 338 343 0 +-.001999999999999935
 -.02524441267495435 -.02 -370708495582752e-29 -1 0 16 241 605 344 ?345 346 237
 341 0 0 1 31 343 1482 0 346 341 347 0 -.01 -.0252444126749544 -.02 0 0 -1 -1 0
 0 .012 16 346 609 348 ?349 350 241 343 0 0 1 31 347 1483 0 350 343 351 0 +-.016
5359456941537 -.01125 -.02 0 0 -1 -1 0 0 .018 16 350 613 352 ?353 354 346 347 0
 0 1 31 351 1484 0 354 347 355 0 -.0165359456941537 .01125 -.02 0 0 -1 -1 0 0 .0
22 16 354 617 356 ?357 358 350 351 0 0 1 31 355 1485 0 358 351 20 0 +-.01 .02524
44126749544 -.02 0 0 -1 -1 0 0 .008 16 358 621 359 ?360 34 354 355 0 0 1 30 20 1
486 0 34 355 6 0 +-.00200000000000025 -.02524441267495435 -.02 -370708495582752e
-29 -1 0 16 34 625 361 ?33 137 358 20 0 0 1 81 1 361 1518 169 34 0 0 339 240 362
 17 33 0 140 77 35 40 28 34 0 0 +80 255 1 169 363 364 9000 1 1 1 1 1 1 1 1 0 FFF
FTFTFFFFFFF3 81 1 339 1517 169 337 0 0 159 361 365 81 1 240 1519 169 237 0 0 361
 356 366 84 255 32 362 4809b25f6a552dcbf8fedf05d435399b81 1 356 1520 169 354 0 0
 240 321 367 84 32 366 10e2bc8c0132c4f63ec42a0a30e0f4b981 1 321 1521 169 320 0 0
 356 342 368 84 32 367 da35f75e0d9c1fd5a133b742f6d342e781 1 342 1522 169 308 0 0
 321 319 369 84 32 368 845e4a9def46ae1c483fa74fa3603b2681 1 319 1523 169 317 0 0
 342 310 370 84 32 369 49cae2f8bb728a54873ef88988e8f55181 1 310 1524 169 145 0 0
 319 313 371 84 32 370 db8bf3d665f302b31547b0e523bbde3d81 1 313 1525 169 311 0 0
 310 150 372 84 32 371 5f04e4950661e25086c8f190af9efa6b81 1 150 1526 169 142 0 0
 313 352 373 84 32 372 74d7bafbcfd40e64d1620d827a5b4eb581 1 352 1527 169 350 0 0
 150 327 374 84 32 373 822f9fdb2b61541010f12508f38a449a81 1 327 1528 169 325 0 0
 352 348 375 84 32 374 1631b8ebbc232a0d800b39ac3fb0d91b81 1 348 1529 169 346 0 0
 327 359 376 84 32 375 e7cefd6694b75f4339c66d1f1ef2860781 1 359 1530 169 358 0 0
 348 232 377 84 32 376 894eb0f074520e6acf82950234e2363d81 1 232 1531 169 137 0 0
 359 331 378 84 32 377 bf19a075b9925bbf983659f1468beaea81 1 331 1532 169 329 0 0
 232 344 379 84 32 378 c63bcd2865ba6f9801d7a14e948d863181 1 344 1533 169 241 0 0
 331 316 380 84 32 379 52917903be78e9d62f7c8f547a4869d281 1 316 1534 169 314 0 0
 344 324 381 84 32 380 776c1b27bf2612e3b584401ca012e18b81 1 324 1535 169 152 0 0
 316 335 382 84 32 381 a08a0f903a568afec50a5966b6f0b01981 1 335 1536 169 333 0 0
 324 383 384 84 32 382 19f49b013e1ff2e86558cdfb56f9788081 1 383 1537 169 385 0 3
86 335 387 388 84 32 384 027ee349fd21319bfeefdef2222ae6a014 255 385 80 389 ?162
 15 390 4 391 +0 0 162 15 23 81 1 386 1550 392 385 383 389 393 394 395 81 1 387
 1538 169 162 0 394 383 396 397 84 32 388 6bcb66485c0c3ed0f3c88d145bcb93aa14 162
 42 398 ?399 385 147 4 400 +0 0 399 385 23 81 1 394 1552 392 162 387 398 386 401
 402 81 1 396 1539 169 15 0 393 387 403 404 84 32 397 8feb689a3d2d1e2ba346a4c51e
deaf0414 15 76 405 ?385 0 154 4 406 +0 0 385 0 23 81 1 393 1548 392 15 396 405 0
 386 407 81 1 403 1540 169 408 0 409 396 410 411 84 32 404 50599ae26eea3c5c4532b
94cb4b4e1a914 408 717 412 ?144 413 414 4 415 -0 0 144 413 23 81 1 409 1582 392 4
08 403 412 416 417 418 81 1 410 1541 169 419 0 420 403 421 422 84 32 411 168fe6f
f48bc5e394339aa6c9df9419814 419 729 423 ?0 144 30 4 424 -0 0 0 144 23 81 1 420 1
586 392 419 410 423 417 0 425 81 1 421 1542 169 426 0 427 410 428 429 84 32 422
 925ba636a0fba99770ccf29ae0f542ce14 426 705 430 ?431 17 432 4 18 -0 0 431 17 23
 81 1 427 1576 392 426 421 430 433 434 435 81 1 428 1543 169 144 0 417 421 436 4
37 84 32 429 526a9fc8fa9483632facca31c0d693f114 144 721 438 ?419 408 140 4 439 -
0 0 419 408 23 81 1 417 1584 392 144 428 438 409 420 440 81 1 436 1544 169 431 0
 434 428 441 442 84 32 437 51398c91502a6e07b8582cb2d6bc691114 431 709 443 ?413 4
26 444 4 445 -0 0 413 426 23 81 1 434 1578 392 431 436 443 427 416 446 81 1 441
 1545 169 413 0 416 436 447 448 84 32 442 f2d87b1695b76a96a92832d762b078f814 413
 713 449 ?408 431 450 4 451 -0 0 408 431 23 81 1 416 1580 392 413 441 449 434 40
9 452 81 1 447 1546 169 17 0 433 441 0 453 84 32 448 cbfb3a0a62d6a7cc620913cfa1d
649d514 17 701 454 ?426 455 456 4 5 -0 0 426 455 23 81 1 433 1574 392 17 447 454
 457 427 458 84 32 453 f6fbb7cf98c9a9a3229549f3e40cdc3680 1 392 459 460 8015 0 0
 0 0 3 5 0 0 0 FFFFTFFFFFFFFF2 81 1 454 1575 461 17 433 0 462 430 463 81 1 457 1
572 392 455 464 462 465 433 466 83 255 1 458 0 14 455 401 462 ?17 467 468 4 469
 +0 0 17 467 23 81 1 464 1248 169 455 0 457 470 471 472 81 1 462 1573 461 455 45
7 0 473 454 474 81 1 465 1570 392 467 471 473 475 457 476 83 1 466 0 14 467 397
 473 ?455 477 478 4 479 -0 0 455 477 23 81 1 471 1249 169 467 0 465 464 480 481
 81 1 473 1571 461 467 465 0 482 462 483 81 1 475 1568 392 477 484 482 485 465 4
86 83 1 476 0 14 477 393 482 ?467 487 488 4 489 -0 0 467 487 23 81 1 484 1246 16
9 477 0 475 490 470 491 81 1 482 1569 461 477 475 0 492 473 493 81 1 485 1566 39
2 487 490 492 494 475 495 83 1 486 0 14 487 377 492 ?477 496 497 4 498 -0 0 477
 496 23 81 1 490 1245 169 487 0 485 251 484 499 81 1 492 1567 461 487 485 0 500
 482 501 81 1 494 1564 392 496 170 500 502 485 503 83 1 495 0 14 496 373 500 ?48
7 504 505 4 506 -0 0 487 504 23 81 1 170 1251 169 496 0 494 480 165 507 81 1 500
 1565 461 496 494 0 508 492 509 81 1 502 1562 392 504 480 508 510 494 511 83 1 5
03 0 14 504 369 508 ?496 512 513 4 514 -0 0 496 512 23 81 1 480 1250 169 504 0 5
02 471 170 515 81 1 508 1563 461 504 502 0 516 500 517 81 1 510 1560 392 512 470
 516 518 502 519 83 1 511 0 14 512 365 516 ?504 520 521 4 522 -0 0 504 520 23 81
 1 470 1247 169 512 0 510 484 464 523 81 1 516 1561 461 512 510 0 524 508 525 81
 1 518 1558 392 520 526 524 527 510 528 83 1 519 0 14 520 24 524 ?512 529 530 4
 531 -0 0 512 529 23 81 1 526 129 169 520 0 518 216 194 532 81 1 524 1559 461 52
0 518 0 533 516 534 81 1 527 1556 392 529 535 533 401 518 536 83 1 528 0 14 529
 78 533 ?520 399 537 4 538 +0 0 520 399 23 81 1 535 942 169 529 0 527 539 294 54
0 81 1 533 1557 461 529 527 0 541 524 542 81 1 401 1554 392 399 539 541 394 527
 543 83 1 536 0 14 399 82 541 ?529 162 544 4 545 +0 0 529 162 23 81 1 539 938 16
9 399 0 401 205 535 546 81 1 541 1555 461 399 401 0 398 533 547 83 1 543 0 80 1
 461 0 548 8001 0 0 0 0 3 5 0 0 0 FFFFTFTFFFFFFF2 81 1 398 1553 461 162 394 0 38
9 541 549 83 3 547 1 .6 0 81 1 389 1551 461 385 386 0 405 398 550 83 3 549 1 .6
 0 81 1 405 1549 461 15 393 0 0 389 551 83 3 550 1 .6 0 83 3 551 1 .6 0 79 255 1
5 548 SDL/TYSA_COLOUR81 1 205 915 169 199 0 0 236 539 552 84 32 546 dd6aa71e0dad
7a40860024067ea5588281 1 236 905 169 151 0 0 189 205 553 84 32 552 c442fa156272d
a744cab8c3dd930c64681 1 189 892 169 186 0 0 227 236 554 84 32 553 48e4072e9a1e48
51e103dc953eb970b684 32 554 60eeeaefff136792e255f8dfdd27457a15 544 551 0 138 399
 0 50 545 90 0 399 391 479 0 +-.011 .0425 -.03 -1 -265310649267041e-30 0 2653106
49267041e-30 -1 0 13 23 91 0 0 0 0 0 0 8 15 50 391 89 0 385 538 545 0 +-.011 -.0
425 -.03 3154042683594195e-31 -1 0 1 3154042683594195e-31 0 51 255 479 1154 0 46
7 545 489 0 --.01 .0252444126749544 -.02 0 0 1 .012 1 0 0 50 489 1155 0 477 479
 498 0 +.002 .0425 -.02 -1 370708495582752e-29 0 -370708495582752e-29 -1 0 50 49
8 1156 0 487 489 506 0 +.002000000000000065 -.02524441267495435 -.02 -1 37070849
5582752e-29 0 -370708495582752e-29 -1 0 51 506 1157 0 496 498 514 0 +.01 -.02524
44126749544 -.02 0 0 1 .008 1 0 0 51 514 1158 0 504 506 522 0 --.016535945694153
7 -.01125 -.02 0 0 1 .022 1 0 0 51 522 1159 0 512 514 439 0 +.0165359456941537 .
01125 -.02 0 0 1 .018 1 0 0 50 439 1449 0 144 522 415 0 +-.002000000000000065 .0
2524441267495435 -.02 1 -370708495582752e-29 0 370708495582752e-29 1 0 51 415 14
50 0 408 439 451 0 +-.01 .0252444126749544 -.02 0 0 1 .008 1 0 0 51 451 1451 0 4
13 415 445 0 -.0165359456941537 .01125 -.02 0 0 1 .022 1 0 0 51 445 1452 0 431 4
51 18 0 +-.0165359456941537 -.01125 -.02 0 0 1 .018 1 0 0 51 18 1453 0 426 445 5
 0 -.01 -.0252444126749544 -.02 0 0 1 .012 1 0 0 50 538 88 0 529 406 391 0 +.011
 -.0425 -.03 1 265310649267041e-30 0 -265310649267041e-30 1 0 50 406 87 0 15 400
 538 0 +.011 .0425 -.03 0 1 0 0 0 1 50 400 62 0 162 531 406 0 +0 0 0 0 0 1 1 0 0
 50 531 25 0 520 469 400 0 +0 0 -.03 0 0 1 1 0 0 50 469 421 0 455 424 531 0 +.01
65359456941537 .01125 -.02 0 0 1 1 0 0 50 424 749 0 419 0 469 0 +.01 -.025244412
6749544 -.02 0 0 -1 -1 0 0 17 138 0 544 128 25 135 134 151 0 158 -17 128 0 544 1
74 138 112 158 191 0 223 -17 25 0 544 138 174 59 126 9 0 0 +17 134 0 30 58 31 59
 138 151 0 555 +15 30 732 0 134 419 0 17 58 0 30 556 134 56 555 237 0 345 +17 55
5 0 390 126 557 59 58 237 0 25 -15 390 545 0 555 385 0 17 126 0 390 217 555 124
 25 9 0 558 -17 557 0 390 555 559 56 62 308 0 0 -17 559 0 390 557 292 60 91 167
 0 0 -17 62 0 456 340 345 60 557 308 0 161 +15 456 704 0 340 17 0 17 340 0 456 5
5 62 63 161 337 0 560 +17 345 0 456 62 55 56 556 241 0 557 +17 161 0 147 91 560
 60 340 337 0 559 -17 91 0 147 561 161 89 559 167 0 295 +17 560 0 147 161 562 63
 336 333 0 0 -17 562 0 147 560 563 66 332 329 0 0 -17 336 0 432 52 65 66 560 333
 0 562 +15 432 708 0 336 426 0 17 52 0 432 349 336 50 68 317 0 564 +17 65 0 432
 336 349 63 55 320 0 340 -17 349 0 432 65 52 53 564 346 0 0 +17 55 0 456 345 340
 53 65 320 0 556 +17 556 0 30 564 58 53 345 241 0 349 -17 564 0 30 565 556 50 34
9 346 0 353 -17 565 0 30 566 564 47 353 350 0 357 -17 353 0 444 68 49 50 565 350
 0 0 +15 444 712 0 332 431 0 17 68 0 444 332 353 66 52 317 0 336 -17 49 0 444 35
3 332 47 71 314 0 565 +17 332 0 444 49 68 69 562 329 0 563 +17 71 0 450 328 357
 69 49 314 0 332 -15 450 716 0 328 413 0 17 328 0 450 46 71 72 563 325 0 148 +17
 357 0 450 71 46 47 566 354 0 0 +17 46 0 450 357 328 44 74 311 0 566 +17 566 0 3
0 32 565 44 357 354 0 360 -17 32 0 30 28 566 40 360 358 0 33 -17 360 0 414 74 42
 44 32 358 0 0 +15 414 720 0 146 408 0 17 74 0 414 146 360 72 46 311 0 328 -17 4
2 0 414 360 146 40 77 145 0 32 +17 146 0 414 42 74 75 148 152 0 141 +17 148 0 14
7 563 141 72 146 152 0 0 -17 563 0 147 562 148 69 328 325 0 0 -17 561 0 147 567
 91 86 295 266 0 0 -17 295 0 497 95 88 89 561 266 0 292 +15 497 380 0 295 487 0
 17 95 0 497 289 295 93 292 258 0 568 -17 88 0 497 295 289 86 99 255 0 299 -17 2
92 0 390 559 569 89 95 258 0 0 +17 569 0 390 292 195 93 132 196 0 0 -17 195 0 39
0 569 217 96 123 26 0 0 +17 132 0 468 130 568 96 569 196 0 570 +15 468 404 0 571
 455 0 17 130 0 468 115 132 116 570 199 0 572 +17 568 0 468 132 573 93 289 200 0
 569 -17 570 0 537 123 190 96 130 199 0 195 -15 537 223 0 570 529 0 17 123 0 537
 220 570 121 195 26 0 217 -17 190 0 537 570 220 116 120 186 0 0 +17 220 0 537 19
0 123 37 574 218 0 225 +17 120 0 154 223 572 37 190 186 0 220 -17 572 0 154 120
 156 116 115 206 0 190 -17 156 0 154 572 155 113 117 249 0 0 -17 115 0 468 575 1
30 113 572 206 0 272 +16 206 295 576 ?115 269 199 203 0 0 1 81 1 576 1231 169 20
6 0 0 268 244 577 81 1 268 1230 169 249 0 0 277 576 578 81 1 244 1232 169 242 0
 0 576 302 579 84 32 577 16960c16bfa1672abe3bb1eb7d09e99f81 1 302 1233 169 300 0
 0 244 265 580 84 32 579 8d5497ba2a2eac4c8cd85afad3a21ec981 1 265 1234 169 164 0
 0 302 271 581 84 32 580 ef87f69dedcef1d69829a128c95364d881 1 271 1235 169 269 0
 0 265 306 582 84 32 581 9790a9331755c221c34b60a97efd653d81 1 306 1236 169 304 0
 0 271 198 583 84 32 582 20f6a0980424bb5406945a910333f85f81 1 198 1237 169 196 0
 0 306 288 584 84 32 583 feb4c9863d1731ae7635fdbd0796c1db81 1 288 1238 169 200 0
 0 198 254 585 84 32 584 2746ac7385e176ad0aa4f3ea6dca8a5b81 1 254 1239 169 252 0
 0 288 261 586 84 32 585 88fdd31214283431b2800b9967542b8a81 1 261 1240 169 259 0
 0 254 251 587 84 32 586 6b08595eed2b7fcf98d7001446b746e081 1 251 1241 169 177 0
 0 261 490 588 84 32 587 3afd332a06e7cb56df8f7dbff3944f8484 32 588 d4fe7c074006d
55dbe85e1a7ca8b7b4881 1 277 1229 169 263 0 0 257 268 589 84 32 578 b5dede84d85f9
2492fa91ee754f673e981 1 257 1228 169 255 0 0 274 277 590 84 32 589 0b05b58770cc9
f1b706857a6c4b9e0fb81 1 274 1227 169 246 0 0 291 257 591 84 32 590 9f45367c6e576
e60e5149d0b44a59b6281 1 291 1226 169 258 0 0 281 274 592 84 32 591 542e243a280c8
50f5c15949ad321c8bd81 1 281 1225 169 279 0 0 285 291 593 84 32 592 9c80d159d3724
96b637078e3dd5261a581 1 285 1224 169 283 0 0 298 281 594 84 32 593 a0ebcaf6e80d7
529660b1ff4e94666f681 1 298 1223 169 296 0 0 248 285 595 84 32 594 c21a96b6b26b1
bbbb24ce42ace02d7dd81 1 248 1222 169 245 0 0 294 298 596 84 32 595 c58bf5bdd9033
3ee772a1db2ffe8304d81 1 294 1221 169 266 0 0 535 248 597 84 32 596 b02ac3affda9a
c9e231c8e6b44b6865684 32 597 7f6af599cb42e4ab093f5bd02fbd63a617 575 0 468 598 11
5 109 272 269 0 275 -17 272 0 488 117 111 113 575 269 0 156 +15 488 396 0 36 477
 0 17 117 0 488 36 272 92 156 249 0 160 +17 111 0 488 272 36 109 599 245 0 575 +
17 36 0 488 111 117 29 160 164 0 599 +17 599 0 478 262 275 29 111 245 0 163 -15
 478 400 0 262 467 0 17 262 0 478 108 599 43 163 259 0 600 +17 275 0 478 599 108
 109 598 246 0 0 +17 163 0 147 160 600 29 262 259 0 0 -17 600 0 147 163 601 43 3
07 304 0 0 -17 601 0 147 600 567 80 303 300 0 0 -17 307 0 521 105 79 80 600 304
 0 601 +15 521 368 0 307 512 0 17 105 0 521 278 307 103 82 177 0 282 +17 79 0 52
1 307 278 43 108 242 0 262 -17 278 0 521 79 105 106 571 263 0 0 +17 108 0 478 27
5 262 106 79 242 0 598 +17 598 0 468 571 575 106 275 246 0 278 -17 571 0 468 602
 598 103 278 263 0 0 -17 602 0 468 573 571 100 282 279 0 286 -17 573 0 468 568 6
02 97 286 283 0 289 -17 282 0 513 82 102 103 602 279 0 571 +17 286 0 505 85 99 1
00 573 283 0 0 +15 505 376 0 299 496 0 17 85 0 505 299 286 83 102 252 0 303 -17
 99 0 505 286 299 97 88 255 0 573 +17 299 0 505 99 85 86 567 296 0 561 +17 567 0
 147 601 561 83 299 296 0 0 -17 102 0 513 282 303 100 85 252 0 602 +17 303 0 513
 102 82 83 601 300 0 567 +15 513 372 0 303 504 0 17 82 0 513 303 282 80 105 177
 0 307 -17 289 0 497 88 95 97 568 200 0 0 +17 574 0 530 558 225 121 220 218 0 0
 -17 225 0 530 574 226 37 223 221 0 0 -15 530 23 0 226 520 0 17 226 0 530 225 55
8 112 174 166 0 0 -17 558 0 530 226 574 124 217 175 0 174 -17 174 0 544 25 128 1
24 226 166 0 0 +17 217 0 390 195 126 121 558 175 0 574 +83 3 542 1 .6 0 84 32 54
0 b7d8d3418613179daa07926bd0c4842383 3 534 1 .6 0 81 1 216 120 169 175 0 0 219 5
26 603 81 1 194 888 169 26 0 0 526 24 604 84 32 532 e319cc709be2643af80a144ce5c6
690081 1 24 889 169 9 0 0 194 227 605 84 32 604 3bb2ea9b77be7206fa64152a7172e997
84 32 605 8c40a516ce38707821dc7a7a7e4f559581 1 219 118 169 218 0 0 222 216 606 8
4 32 603 c25ac75ca0a71a1898f720d4e506d16e84 32 606 c7ec3d33ea6c9917af8fcf39cc13c
58a83 3 525 1 .6 0 84 32 523 a2d7f98a0ec37c74dd1e689671bc4aa283 3 517 1 .6 0 84
 32 515 6836a0234749ff543c8c36c19448c91483 3 509 1 .6 0 84 32 507 e9e0152d31f85b
955650622e056b701083 3 501 1 .6 0 84 32 499 8fdc75aa1bac6ca0cbdc7591a67ba37183 3
 493 1 .6 0 84 32 491 ac77a1424e35704a143ba2d0f8625ad083 3 483 1 .6 0 84 32 481
 42c036f5b53a7490d30c97cc0eac1a5e83 3 474 1 .6 0 84 32 472 d50be866f3c6d905deb61
f0689cafce981 1 430 1577 461 426 427 0 454 443 607 83 3 463 1 .6 0 81 1 443 1579
 461 431 434 0 430 449 608 83 3 607 1 .6 0 81 1 449 1581 461 413 416 0 443 412 6
09 83 3 608 1 .6 0 81 1 412 1583 461 408 409 0 449 438 610 83 3 609 1 .6 0 81 1
 438 1585 461 144 417 0 412 423 611 83 3 610 1 .6 0 81 1 423 1587 461 419 420 0
 438 0 612 83 3 611 1 .6 0 83 3 612 1 .6 0 79 21 460 SDL/TYSA_TRANSLUCENCY83 1 4
52 0 83 1 446 0 83 1 440 0 83 1 435 0 83 1 425 0 83 1 418 0 83 1 407 0 83 1 402
 0 83 1 395 0 81 1 159 1516 169 19 0 0 171 339 613 84 32 365 6b03a0d67fb1152af78
6e7c61588c55581 1 171 1515 169 167 0 0 165 159 614 84 32 613 029f705a273b70f5582
e1a1acfa1d55484 32 614 ddef2e6ca44d6ffbf3626beea3c2802979 15 364 UGS/ObjectState
84 32 228 69f6875cc1619a00f048585ad046810681 1 173 115 169 166 0 0 0 222 615 84
 32 224 23f2be32fda94ab090140ed0a7bc7e1a84 32 615 565644209de83f9d09ce271ce0633a
ac141 212 235 212 212 209 141 192 207 192 192 187 141 184 188 184 184 181 84 32
 172 db0b13ba1548f32210d39613a27fae5819 16 92 0 1 0 8 4 S0 74 4 CI16 index_map_o
ffset0 0 1 dCCZ20 14 6 0 0 447 616 12 420 423 2 0 0 0 0 0 0 0 0 0 0 0 0 0 0 81 2
 616 1513 617 1 0 12 0 0 618 619 81 1 12 1547 620 1 616 2 0 0 621 80 1 620 622 6
23 9000 0 0 0 0 3 5 0 0 0 FFTFFFFFFFFFFT1 82 255 1 621 8 79 7 623 body_id80 2 61
7 624 625 8004 0 0 0 0 3 5 0 0 0 FFTFFFFFFFFFFT2 3 83 1 618 7830.64 84 8 619 Kg/
Cu M 79 16 625 SDL/TYSA_DENSITY80 1 11 626 627 9000 0 0 0 0 3 5 0 0 0 FFTFFFFFFF
FFFF1 82 1 13 78 79 24 627 UG2/BODY_COLOR_ATTRIBUTE1 0 
